<svg xmlns="http://www.w3.org/2000/svg" viewBox="675 172.109 106.062 105.205">
  <defs>
    <style>
      .cls-1 {
        fill: #e4504b;
      }

      .cls-2 {
        fill: #e8695e;
      }

      .cls-3 {
        fill: #e0343a;
      }

      .cls-4 {
        fill: #fff;
      }
    </style>
  </defs>
  <g id="logo" transform="translate(678.039 169.147)">
    <path id="Tracé_8" data-name="Tracé 8" class="cls-1" d="M31.87,0,13.91,17.066,0,55.8,6.556,74.731" transform="translate(41.034 33.336) rotate(-1.2)"/>
    <path id="Tracé_7" data-name="Tracé 7" class="cls-2" d="M16.633,16.761,8.2,42.973l26.175-8.5S51.888,51.851,51.831,51.578c-.422-2.024-3.471-9.758-5.929-21.537l-7.095-6.2L22.195,29.167l5.08-16.837L20.18,5.248,0,0" transform="translate(-2.952 56.587) rotate(-0.3)"/>
    <path id="Tracé_10" data-name="Tracé 10" class="cls-3" d="M0,25.262l20.364,4.786,37.749-12.3L75.435,0" transform="matrix(1, 0.017, -0.017, 1, -2.514, 31.362)"/>
    <path id="Tracé_13" data-name="Tracé 13" class="cls-4" d="M5.654,45.029l17.474-5.844a36.459,36.459,0,0,1,7.452-10.716C44.327,14.747,66.5,14.215,81.757,26.433l9.133-3.009-3.106,9.12c12.329,15.051,11.533,37.188-2.039,50.47a36.12,36.12,0,0,1-11.709,7.792L68.272,107.9A52.425,52.425,0,0,0,96.3,93.553c20.758-20.19,20.228-53.838-.71-74.2C74.57-1.9,40.333-2.786,19.932,18.466A51.32,51.32,0,0,0,5.651,45.029" transform="translate(-8.56 0)"/>
  </g>
</svg>
