<svg width="708" height="131" xmlns="http://www.w3.org/2000/svg"><defs><linearGradient x1=".3%" y1="49.9%" x2="100.3%" y2="49.9%" id="a"><stop stop-color="#493DAC" offset="0%"/><stop stop-color="#3F5ACC" offset="52%"/><stop stop-color="#3479ED" offset="99.9%"/></linearGradient><linearGradient x1="50%" y1="100%" x2="50%" y2="0%" id="b"><stop stop-color="#3479ED" offset="0%"/><stop stop-color="#00ECB9" offset="98.7%"/></linearGradient><linearGradient x1="0%" y1="50%" y2="50%" id="c"><stop stop-color="#C5F49A" offset="0%"/><stop stop-color="#00ECB9" offset="100%"/></linearGradient></defs><g fill="none"><path d="M186.6 26.6H242v11.5h-21.1v56.3h-13.1V38.1h-21.1V26.6h-.1zm104.5 16v51.8h-12.6v-8.2a19.7 19.7 0 0 1-17.3 8.8c-14.8 0-24.7-10.9-24.7-26.6 0-15.6 9.7-26.2 24.2-26.3 7.9-.1 14.1 3.1 17.8 8.8v-8.3h12.6zm-12.6 27.9v-3.7c-.8-8.3-6.5-14-14.6-14-8.6 0-14.6 6.6-14.7 15.8.1 9.3 6 15.8 14.7 15.8 8.1 0 13.8-5.6 14.6-13.9zm42 13c1.6 0 3.2-.6 5.1-1.6l1.5 10.6a22.6 22.6 0 0 1-9.8 2.5c-7.8 0-14.1-5.4-14.1-16.3V22.5h12.5v55.1c.1 4 2 5.9 4.8 5.9zm47.2 10.9l-14.1-22.7-7.9 8.3v14.3h-12.6V22.4h12.6v41.7L367 42.6h14.5l-19.2 20 20.3 31.8h-14.9zm53.8-55.3a30.9 30.9 0 0 0-9.6-1.7c-3.1 0-5.6.6-7.4 1.7a5.5 5.5 0 0 0-2.7 4.8c0 1.9.6 3.4 1.9 4.7 1.3 1.3 2.8 2.3 4.7 3.1 1.9.8 4.5 1.7 7.8 2.7 4.6 1.4 8.3 2.7 11.3 4.1 2.9 1.4 5.4 3.4 7.5 6 2.1 2.6 3.1 6.1 3.1 10.5 0 4.1-1.1 7.7-3.3 10.8a20.4 20.4 0 0 1-9.2 7 41.5 41.5 0 0 1-28.9-.6c-5-2-9.4-4.6-13.2-7.9l5.4-11c3.4 3.2 7.3 5.7 11.5 7.5 4.3 1.8 8.2 2.7 11.9 2.7 3.6 0 6.5-.7 8.5-2.1a6.5 6.5 0 0 0 3.1-5.7c0-1.9-.6-3.5-1.9-4.8a14.7 14.7 0 0 0-4.8-3.1c-1.9-.8-4.6-1.6-7.9-2.6a97.8 97.8 0 0 1-11.2-4 19.3 19.3 0 0 1-7.5-5.9 16 16 0 0 1-3.1-10.3c0-3.9 1-7.4 3.1-10.3 2.1-2.9 5.1-5.2 8.9-6.8 3.8-1.6 8.3-2.4 13.3-2.4a44.5 44.5 0 0 1 24.5 7.1l-5.2 11.3c-3.4-2-7-3.7-10.6-4.8zm67.1 10.2c4.2 4.7 6.2 11.3 6.2 19.9l-.1 3.8h-38.3c.8 3.7 2.6 6.6 5.2 8.7 2.6 2.1 5.8 3.1 9.6 3.1 2.6 0 5.2-.5 7.6-1.5 2.4-1 4.5-2.4 6.3-4.3l6.8 7.1c-2.6 2.8-5.7 5-9.4 6.6a30.8 30.8 0 0 1-12.4 2.3c-5.3 0-10-1.1-14-3.3-4-2.2-7.2-5.3-9.3-9.3-2.2-4-3.3-8.5-3.3-13.7 0-5.2 1.1-9.8 3.3-13.8 2.2-4 5.3-7.1 9.4-9.4a28 28 0 0 1 13.7-3.3c8.3 0 14.5 2.3 18.7 7.1zm-5.3 15.2c-.1-3.8-1.4-6.8-3.8-9.1A13.2 13.2 0 0 0 470 52c-3.7 0-6.8 1.1-9.3 3.3-2.5 2.2-4 5.3-4.6 9.2h27.2zm71.3-21.9v51.8H542v-8.2a19.7 19.7 0 0 1-17.3 8.8C509.9 95 500 84.1 500 68.4c0-15.6 9.7-26.2 24.2-26.3 7.9-.1 14.1 3.1 17.8 8.8v-8.3h12.6zM542 70.5v-3.7c-.8-8.3-6.5-14-14.6-14-8.6 0-14.6 6.6-14.7 15.8.1 9.3 6 15.8 14.7 15.8 8.1 0 13.8-5.6 14.6-13.9zm45-25.7a21 21 0 0 1 10.5-2.8v12.2a17 17 0 0 0-12.8 3.7 14.4 14.4 0 0 0-4.8 11.4v25h-12.6V42.5h12.6v10c1.7-3.3 4.1-5.9 7.1-7.7zm39.9 8.4a13 13 0 0 0-10.2 4.3 15.6 15.6 0 0 0-3.9 11c0 4.7 1.3 8.4 3.9 11.2 2.6 2.8 6 4.3 10.2 4.3 6.2 0 10.9-2 14-6.1l7.8 6.5a23.3 23.3 0 0 1-9.2 7.8 30.7 30.7 0 0 1-13.3 2.7c-5.1 0-9.6-1.1-13.6-3.3-4-2.2-7.1-5.3-9.3-9.3-2.2-4-3.3-8.5-3.3-13.7 0-5.2 1.1-9.9 3.3-13.9 2.2-4 5.3-7.1 9.3-9.3 4-2.2 8.5-3.3 13.7-3.3 4.7 0 8.9.8 12.6 2.5 3.7 1.6 6.7 4 9.1 7l-7.7 7.3a16.9 16.9 0 0 0-13.4-5.7zm75.1-5.7c3.4 3.6 5.1 8.4 5.1 14.6v32.4h-12.7V65.8c0-3.6-1-6.5-3.1-8.6a11.3 11.3 0 0 0-8.4-3.1c-4.2.1-7.5 1.5-10 4.3a15.3 15.3 0 0 0-3.7 10.7v25.5h-12.6V22.7h12.6v29.9c3.6-6.8 9.8-10.2 18.7-10.4a18 18 0 0 1 14.1 5.3z" fill="#211B39"/><circle fill="#FFF" cx="64.9" cy="65" r="54.4"/><path d="M97.7 9.1a31.3 31.3 0 0 0-46.6 27.4v4.4l76.1 44A65 65 0 0 0 97.7 9.1z" fill="url(#a)"/><path d="M51.1 36.5v4.4l8.7 4.9v-7.3c0-16.9 9-31.7 24-33.4a31.5 31.5 0 0 0-32.7 31.4zm42.4 28.9l33.7 19.5c1-3.3 1.8-6.7 2.3-10.1l-36-9.4z" fill="#353587" opacity=".4"/><path d="M.3 65.4a31.3 31.3 0 0 0 47 26.6l3.8-2.2V36.3a31.4 31.4 0 0 1 45.5-28A65.1 65.1 0 0 0 .3 65.4z" fill="url(#b)"/><path d="M47.3 92l3.8-2.2V77.6l-6.3 3.7c-14.7 8.5-32.1 10.3-41-1.8A31.4 31.4 0 0 0 47.3 92z" fill="#353587" opacity=".2"/><path d="M157.1 102.6L93.5 65.3 47.3 92.1a31.4 31.4 0 0 1-47-25.4 65.2 65.2 0 0 0 106.3 48.6 13.6 13.6 0 0 1 15.8-1.3l20.8 12.3c6.6 3.9 15 1.7 18.9-4.9a14 14 0 0 0-5-18.8z" fill="url(#c)"/></g></svg>