<?xml version="1.0" encoding="UTF-8" standalone="no"?>
<!-- Created with Inkscape (http://www.inkscape.org/) -->

<svg
   xmlns:dc="http://purl.org/dc/elements/1.1/"
   xmlns:cc="http://creativecommons.org/ns#"
   xmlns:rdf="http://www.w3.org/1999/02/22-rdf-syntax-ns#"
   xmlns:svg="http://www.w3.org/2000/svg"
   xmlns="http://www.w3.org/2000/svg"
   xmlns:sodipodi="http://sodipodi.sourceforge.net/DTD/sodipodi-0.dtd"
   xmlns:inkscape="http://www.inkscape.org/namespaces/inkscape"
   width="140"
   height="60"
   viewBox="0 0 140 60"
   id="svg7322"
   version="1.1"
   inkscape:version="0.91 r13725"
   sodipodi:docname="logo-usi-horizontal-with-baseline.svg">
  <defs
     id="defs7324" />
  <sodipodi:namedview
     id="base"
     pagecolor="#ffffff"
     bordercolor="#666666"
     borderopacity="1.0"
     inkscape:pageopacity="0.0"
     inkscape:pageshadow="2"
     inkscape:zoom="5.6"
     inkscape:cx="79.633445"
     inkscape:cy="34.12049"
     inkscape:document-units="px"
     inkscape:current-layer="layer1"
     showgrid="false"
     units="px"
     inkscape:window-width="1280"
     inkscape:window-height="751"
     inkscape:window-x="0"
     inkscape:window-y="1"
     inkscape:window-maximized="1" />
  <metadata
     id="metadata7327">
    <rdf:RDF>
      <cc:Work
         rdf:about="">
        <dc:format>image/svg+xml</dc:format>
        <dc:type
           rdf:resource="http://purl.org/dc/dcmitype/StillImage" />
        <dc:title></dc:title>
      </cc:Work>
    </rdf:RDF>
  </metadata>
  <g
     inkscape:label="Calque 1"
     inkscape:groupmode="layer"
     id="layer1"
     transform="translate(0,-992.36219)">
    <path
       class="st12"
       d="m 6.6833327,1049.719 c -1.2566667,0 -2.1266667,-0.8699 -2.1266667,-2.0298 l 0,-4.0595 0.87,0 0,3.9629 c 0,0.7732 0.4833333,1.2565 1.2566667,1.2565 0.7733333,0 1.2566666,-0.4833 1.2566666,-1.2565 l 0,-3.9629 0.87,0 0,3.9629 c 0,1.2565 -0.87,2.1264 -2.1266666,2.1264 z"
       id="path386"
       inkscape:connector-curvature="0"
       style="fill:#cdb171" />
    <path
       class="st12"
       d="m 12.869999,1049.6224 0,-2.6098 c 0,-0.6766 -0.386666,-0.9665 -0.87,-0.9665 -0.483333,0 -0.87,0.2899 -0.87,0.9665 l 0,2.6098 -0.87,0 0,-4.2529 0.87,0 0,0.3866 c 0.29,-0.29 0.676667,-0.4833 1.16,-0.4833 0.483334,0 0.773334,0.097 1.063334,0.3866 0.29,0.29 0.386666,0.7733 0.386666,1.1599 l 0,2.7064 -0.87,0 z"
       id="path388"
       inkscape:connector-curvature="0"
       style="fill:#cdb171" />
    <path
       class="st12"
       d="m 15.673333,1047.7859 c 0,0.7732 0.386666,1.1599 1.063333,1.1599 0.483333,0 0.773333,-0.097 1.063333,-0.4833 l 0.58,0.4833 c -0.483333,0.4833 -0.87,0.6766 -1.643333,0.6766 -1.063333,0 -1.933333,-0.58 -1.933333,-2.2231 0,-1.3532 0.676666,-2.2231 1.836666,-2.2231 1.16,0 1.836667,0.8699 1.836667,2.0298 l 0,0.3866 -2.803333,0 z m 1.74,-1.1599 c -0.09667,-0.29 -0.483334,-0.5799 -0.87,-0.5799 -0.386667,0 -0.676667,0.1933 -0.87,0.5799 -0.09667,0.1933 -0.09667,0.29 -0.09667,0.58 l 1.933333,0 c 0.09667,-0.29 0,-0.3867 -0.09667,-0.58 z"
       id="path390"
       inkscape:connector-curvature="0"
       style="fill:#cdb171" />
    <path
       class="st12"
       d="m 21.859999,1049.6224 -0.87,-1.4499 -0.87,1.4499 -1.063333,0 1.45,-2.2231 -1.45,-2.1265 1.063333,0 0.87,1.3532 0.87,-1.3532 1.063334,0 -1.45,2.1265 1.45,2.2231 -1.063334,0 z"
       id="path392"
       inkscape:connector-curvature="0"
       style="fill:#cdb171" />
    <path
       class="st12"
       d="m 26.789999,1049.3324 c -0.193333,0.1933 -0.58,0.3866 -1.063333,0.3866 -0.483333,0 -0.773333,-0.097 -1.16,-0.4833 l 0,2.1265 -0.87,0 0,-5.9927 0.87,0 0,0.4833 c 0.29,-0.3867 0.676667,-0.4833 1.16,-0.4833 0.386667,0 0.773333,0.097 1.063333,0.3866 0.386667,0.3866 0.483334,1.1599 0.483334,1.8365 0,0.5799 -0.09667,1.3532 -0.483334,1.7398 z m -1.256666,-3.1897 c -0.773334,0 -0.87,0.6766 -0.87,1.4499 0,0.7732 0.09667,1.4498 0.87,1.4498 0.773333,0 0.87,-0.6766 0.87,-1.4498 0,-0.8699 -0.09667,-1.4499 -0.87,-1.4499 z"
       id="path394"
       inkscape:connector-curvature="0"
       style="fill:#cdb171" />
    <path
       class="st12"
       d="m 29.013333,1047.7859 c 0,0.7732 0.386666,1.1599 1.063333,1.1599 0.483333,0 0.773333,-0.097 1.063333,-0.4833 l 0.58,0.4833 c -0.483333,0.4833 -0.87,0.6766 -1.643333,0.6766 -1.063333,0 -1.933333,-0.58 -1.933333,-2.2231 0,-1.3532 0.676666,-2.2231 1.836666,-2.2231 1.16,0 1.836667,0.8699 1.836667,2.0298 l 0,0.3866 -2.803333,0 z m 1.836666,-1.1599 c -0.09667,-0.29 -0.483333,-0.5799 -0.87,-0.5799 -0.386666,0 -0.676666,0.1933 -0.87,0.5799 -0.09667,0.1933 -0.09667,0.29 -0.09667,0.58 l 1.933333,0 c 0,-0.29 0,-0.3867 -0.09667,-0.58 z"
       id="path396"
       inkscape:connector-curvature="0"
       style="fill:#cdb171" />
    <path
       class="st12"
       d="m 34.619999,1049.719 c -0.966666,0 -1.933333,-0.5799 -1.933333,-2.2231 0,-1.6431 0.966667,-2.2231 1.933333,-2.2231 0.58,0 0.966667,0.1933 1.45,0.58 l -0.58,0.6766 c -0.29,-0.29 -0.483333,-0.3867 -0.773333,-0.3867 -0.29,0 -0.58,0.097 -0.773333,0.3867 -0.193334,0.1933 -0.29,0.5799 -0.29,1.0632 0,0.4833 0.09667,0.7732 0.29,1.0632 0.193333,0.29 0.483333,0.3866 0.773333,0.3866 0.29,0 0.58,-0.097 0.773333,-0.3866 l 0.58,0.5799 c -0.386666,0.29 -0.87,0.4833 -1.45,0.4833 z"
       id="path398"
       inkscape:connector-curvature="0"
       style="fill:#cdb171" />
    <path
       class="st12"
       d="m 38.293333,1049.6224 c -0.773334,0 -1.16,-0.58 -1.16,-1.1599 l 0,-2.3198 -0.483334,0 0,-0.6766 0.483334,0 0,-1.2565 0.87,0 0,1.2565 0.87,0 0,0.6766 -0.87,0 0,2.3198 c 0,0.29 0.193333,0.4833 0.483333,0.4833 l 0.386667,0 0,0.7732 -0.58,0 z"
       id="path400"
       inkscape:connector-curvature="0"
       style="fill:#cdb171" />
    <path
       class="st12"
       d="m 40.516666,1047.7859 c 0,0.7732 0.386667,1.1599 1.063333,1.1599 0.483334,0 0.773334,-0.097 1.063334,-0.4833 l 0.58,0.4833 c -0.483334,0.4833 -0.87,0.6766 -1.643334,0.6766 -1.063333,0 -1.933333,-0.58 -1.933333,-2.2231 0,-1.3532 0.676667,-2.2231 1.836667,-2.2231 1.16,0 1.836666,0.8699 1.836666,2.0298 l 0,0.3866 -2.803333,0 z m 1.836667,-1.1599 c -0.09667,-0.29 -0.483334,-0.5799 -0.87,-0.5799 -0.386667,0 -0.676667,0.1933 -0.87,0.5799 -0.09667,0.1933 -0.09667,0.29 -0.09667,0.58 l 1.933333,0 c 0,-0.29 0,-0.3867 -0.09667,-0.58 z"
       id="path402"
       inkscape:connector-curvature="0"
       style="fill:#cdb171" />
    <path
       class="st12"
       d="m 46.896666,1049.6224 0,-0.4833 c -0.29,0.3866 -0.676667,0.4833 -1.16,0.4833 -0.386667,0 -0.773333,-0.097 -1.063333,-0.3867 -0.386667,-0.3866 -0.483334,-1.1598 -0.483334,-1.8364 0,-0.6766 0.09667,-1.3532 0.483334,-1.8365 0.193333,-0.1933 0.58,-0.3866 1.063333,-0.3866 0.483333,0 0.773333,0.097 1.16,0.4832 l 0,-2.0297 0.87,0 0,5.9927 -0.87,0 z m -0.87,-3.4797 c -0.773333,0 -0.87,0.6766 -0.87,1.4499 0,0.7732 0.09667,1.4498 0.87,1.4498 0.773333,0 0.87,-0.6766 0.87,-1.4498 0,-0.8699 -0.09667,-1.4499 -0.87,-1.4499 z"
       id="path404"
       inkscape:connector-curvature="0"
       style="fill:#cdb171" />
    <path
       class="st12"
       d="m 52.889999,1049.719 c -0.87,0 -1.546666,-0.1933 -2.126666,-0.7732 l 0.58,-0.58 c 0.483333,0.4833 0.966666,0.58 1.546666,0.58 0.773334,0 1.256667,-0.29 1.256667,-0.9666 0,-0.29 -0.09667,-0.4833 -0.193333,-0.5799 -0.193334,-0.097 -0.29,-0.1933 -0.676667,-0.29 l -0.676667,-0.097 c -0.483333,-0.097 -0.87,-0.1933 -1.16,-0.4832 -0.29,-0.29 -0.483333,-0.6766 -0.483333,-1.1599 0,-1.0633 0.773333,-1.7398 2.03,-1.7398 0.773333,0 1.353333,0.1933 1.836667,0.6765 l -0.58,0.58 c -0.386667,-0.3866 -0.773334,-0.4833 -1.353334,-0.4833 -0.676666,0 -1.063333,0.3866 -1.063333,0.9666 0,0.1933 0.09667,0.3866 0.193333,0.5799 0.193334,0.097 0.386667,0.1933 0.676667,0.29 l 0.676667,0.097 c 0.58,0.097 0.87,0.1934 1.16,0.4833 0.29,0.29 0.483333,0.6766 0.483333,1.2566 0,0.9665 -0.87,1.6431 -2.126667,1.6431 z"
       id="path406"
       inkscape:connector-curvature="0"
       style="fill:#cdb171" />
    <path
       class="st12"
       d="m 59.173333,1049.2357 c -0.29,0.29 -0.676667,0.4833 -1.256667,0.4833 -0.58,0 -0.966667,-0.1933 -1.256667,-0.4833 -0.386666,-0.3866 -0.483333,-0.9665 -0.483333,-1.6431 0,-0.6766 0.09667,-1.2566 0.483333,-1.6432 0.29,-0.29 0.676667,-0.4833 1.256667,-0.4833 0.58,0 0.966667,0.1933 1.256667,0.4833 0.386667,0.3866 0.483333,0.9666 0.483333,1.6432 0,0.6766 -0.09667,1.1599 -0.483333,1.6431 z m -0.676667,-2.8997 c -0.193333,-0.1933 -0.386667,-0.2899 -0.676667,-0.2899 -0.29,0 -0.483333,0.097 -0.58,0.2899 -0.29,0.29 -0.29,0.6766 -0.29,1.1599 0,0.4833 0,0.8699 0.29,1.1599 0.193334,0.1933 0.386667,0.29 0.58,0.29 0.29,0 0.483334,-0.097 0.676667,-0.29 0.29,-0.29 0.29,-0.6766 0.29,-1.1599 0,-0.4833 0,-0.8699 -0.29,-1.1599 z"
       id="path408"
       inkscape:connector-curvature="0"
       style="fill:#cdb171" />
    <path
       class="st12"
       d="m 63.62,1049.6224 0,-0.3867 c -0.29,0.29 -0.676667,0.4833 -1.16,0.4833 -0.483334,0 -0.773334,-0.097 -1.063334,-0.3866 -0.29,-0.29 -0.386666,-0.7733 -0.386666,-1.1599 l 0,-2.7064 0.87,0 0,2.6098 c 0,0.6766 0.386666,0.9665 0.87,0.9665 0.483333,0 0.87,-0.2899 0.87,-0.9665 l 0,-2.6098 0.87,0 0,4.2529 -0.87,0 z"
       id="path410"
       inkscape:connector-curvature="0"
       style="fill:#cdb171" />
    <path
       class="st12"
       d="m 68.356666,1046.4327 c -0.193333,-0.1933 -0.386666,-0.29 -0.676666,-0.29 -0.483334,0 -0.87,0.3867 -0.87,0.9666 l 0,2.6097 -0.87,0 0,-4.2529 0.87,0 0,0.4833 c 0.193333,-0.29 0.676666,-0.4833 1.16,-0.4833 0.386666,0 0.773333,0.097 1.063333,0.3867 l -0.676667,0.5799 z"
       id="path412"
       inkscape:connector-curvature="0"
       style="fill:#cdb171" />
    <path
       class="st12"
       d="m 71.353333,1049.719 c -0.966667,0 -1.933333,-0.5799 -1.933333,-2.2231 0,-1.6431 0.966666,-2.2231 1.933333,-2.2231 0.58,0 0.966667,0.1933 1.45,0.58 l -0.58,0.5799 c -0.29,-0.29 -0.483333,-0.3866 -0.773333,-0.3866 -0.29,0 -0.58,0.097 -0.773334,0.3866 -0.193333,0.1933 -0.29,0.5799 -0.29,1.0632 0,0.4833 0.09667,0.7733 0.29,1.0632 0.193334,0.29 0.483334,0.3867 0.773334,0.3867 0.29,0 0.58,-0.097 0.773333,-0.3867 l 0.58,0.58 c -0.483333,0.3866 -0.87,0.5799 -1.45,0.5799 z"
       id="path414"
       inkscape:connector-curvature="0"
       style="fill:#cdb171" />
    <path
       class="st12"
       d="m 74.446666,1047.7859 c 0,0.7732 0.386667,1.1599 1.063334,1.1599 0.483333,0 0.773333,-0.097 1.063333,-0.4833 l 0.58,0.4833 c -0.483333,0.4833 -0.87,0.6766 -1.643333,0.6766 -1.063334,0 -1.933334,-0.58 -1.933334,-2.2231 0,-1.3532 0.676667,-2.2231 1.836667,-2.2231 1.16,0 1.836667,0.8699 1.836667,2.0298 l 0,0.3866 -2.803334,0 z m 1.74,-1.1599 c -0.09667,-0.29 -0.483333,-0.5799 -0.87,-0.5799 -0.386666,0 -0.676666,0.1933 -0.87,0.5799 -0.09667,0.1933 -0.09667,0.29 -0.09667,0.58 l 1.933333,0 c 0.09667,-0.29 0,-0.3867 -0.09667,-0.58 z"
       id="path416"
       inkscape:connector-curvature="0"
       style="fill:#cdb171" />
    <path
       class="st12"
       d="m 79.86,1049.719 c -0.676667,0 -1.256667,-0.097 -1.836667,-0.5799 l 0.58,-0.58 c 0.386667,0.3867 0.773333,0.4833 1.256667,0.4833 0.483333,0 0.966666,-0.1933 0.966666,-0.5799 0,-0.29 -0.193333,-0.4833 -0.58,-0.4833 L 79.57,1047.8825 c -0.773334,-0.097 -1.256667,-0.3866 -1.256667,-1.1598 0,-0.8699 0.676667,-1.3532 1.643333,-1.3532 0.676667,0 1.16,0.097 1.546667,0.4833 l -0.58,0.5799 c -0.29,-0.1933 -0.676667,-0.29 -1.063333,-0.29 -0.483334,0 -0.773334,0.1933 -0.773334,0.58 0,0.2899 0.09667,0.4833 0.58,0.4833 l 0.676667,0.097 c 0.773333,0.097 1.256667,0.4833 1.256667,1.1599 0.09667,0.7732 -0.676667,1.2565 -1.74,1.2565 z"
       id="path418"
       inkscape:connector-curvature="0"
       style="fill:#cdb171" />
    <path
       class="st12"
       d="m 87.98,1049.2357 c -0.29,0.29 -0.676667,0.4833 -1.256667,0.4833 -0.58,0 -0.966667,-0.1933 -1.256667,-0.4833 -0.386666,-0.3866 -0.483333,-0.9665 -0.483333,-1.6431 0,-0.6766 0.09667,-1.2566 0.483333,-1.6432 0.29,-0.29 0.676667,-0.4833 1.256667,-0.4833 0.58,0 0.966667,0.1933 1.256667,0.4833 0.386666,0.3866 0.483333,0.9666 0.483333,1.6432 0,0.6766 -0.09667,1.1599 -0.483333,1.6431 z m -0.676667,-2.8997 c -0.193333,-0.1933 -0.386667,-0.2899 -0.676667,-0.2899 -0.29,0 -0.483333,0.097 -0.58,0.2899 -0.29,0.29 -0.29,0.6766 -0.29,1.1599 0,0.4833 0,0.8699 0.29,1.1599 0.193334,0.1933 0.386667,0.29 0.58,0.29 0.29,0 0.483334,-0.097 0.676667,-0.29 0.29,-0.29 0.29,-0.6766 0.29,-1.1599 0.09667,-0.4833 0,-0.8699 -0.29,-1.1599 z"
       id="path420"
       inkscape:connector-curvature="0"
       style="fill:#cdb171" />
    <path
       class="st12"
       d="m 90.88,1046.1427 0,3.5763 -0.87,0 0,-3.5763 -0.483334,0 0,-0.6766 0.483334,0 0,-0.6766 c 0,-0.5799 0.386666,-1.1598 1.16,-1.1598 l 0.58,0 0,0.7732 -0.386667,0 c -0.29,0 -0.483333,0.1933 -0.483333,0.4833 l 0,0.5799 0.87,0 0,0.6766 -0.87,0 z"
       id="path422"
       inkscape:connector-curvature="0"
       style="fill:#cdb171" />
    <path
       class="st12"
       d="m 95.133333,1049.6224 0,-5.9927 0.87,0 0,5.9927 -0.87,0 z"
       id="path424"
       inkscape:connector-curvature="0"
       style="fill:#cdb171" />
    <path
       class="st12"
       d="m 100.35333,1049.6224 0,-2.6098 c 0,-0.6766 -0.386664,-0.9665 -0.869997,-0.9665 -0.483333,0 -0.87,0.2899 -0.87,0.9665 l 0,2.6098 -0.87,0 0,-4.2529 0.87,0 0,0.3866 c 0.29,-0.29 0.676667,-0.4833 1.16,-0.4833 0.483337,0 0.773337,0.097 1.063337,0.3866 0.29,0.29 0.38666,0.7733 0.38666,1.1599 l 0,2.7064 -0.87,0 z"
       id="path426"
       inkscape:connector-curvature="0"
       style="fill:#cdb171" />
    <path
       class="st12"
       d="m 104.02667,1049.719 c -0.67667,0 -1.25667,-0.097 -1.83667,-0.5799 l 0.58,-0.58 c 0.38667,0.3867 0.77333,0.4833 1.25667,0.4833 0.48333,0 0.96666,-0.1933 0.96666,-0.5799 0,-0.29 -0.19333,-0.4833 -0.58,-0.4833 l -0.67666,-0.097 c -0.77334,-0.097 -1.25667,-0.3866 -1.25667,-1.1598 0,-0.8699 0.67667,-1.3532 1.64333,-1.3532 0.67667,0 1.16,0.097 1.54667,0.4833 l -0.58,0.5799 c -0.29,-0.1933 -0.67667,-0.29 -1.06333,-0.29 -0.48334,0 -0.77334,0.1933 -0.77334,0.58 0,0.2899 0.0967,0.4833 0.58,0.4833 l 0.67667,0.097 c 0.77333,0.097 1.25667,0.4833 1.25667,1.1599 0,0.7732 -0.67667,1.2565 -1.74,1.2565 z"
       id="path428"
       inkscape:connector-curvature="0"
       style="fill:#cdb171" />
    <path
       class="st12"
       d="m 110.02,1049.3324 c -0.19333,0.1933 -0.58,0.3866 -1.06333,0.3866 -0.48334,0 -0.77334,-0.097 -1.16,-0.4833 l 0,2.1265 -0.77334,0 0,-5.9927 0.87,0 0,0.4833 c 0.29,-0.3867 0.67667,-0.4833 1.16,-0.4833 0.38667,0 0.77334,0.097 1.06334,0.3866 0.38666,0.3866 0.48333,1.1599 0.48333,1.8365 -0.0967,0.5799 -0.19333,1.3532 -0.58,1.7398 z m -1.25667,-3.1897 c -0.77333,0 -0.87,0.6766 -0.87,1.4499 0,0.7732 0.0967,1.4498 0.87,1.4498 0.77334,0 0.87,-0.6766 0.87,-1.4498 0,-0.8699 -0.0967,-1.4499 -0.87,-1.4499 z"
       id="path430"
       inkscape:connector-curvature="0"
       style="fill:#cdb171" />
    <path
       class="st12"
       d="m 111.76,1044.4996 0,-0.8699 0.87,0 0,0.8699 -0.87,0 z m 0.0967,5.1228 0,-4.2529 0.87,0 0,4.2529 -0.87,0 z"
       id="path432"
       inkscape:connector-curvature="0"
       style="fill:#cdb171" />
    <path
       class="st12"
       d="m 116.49667,1046.4327 c -0.19334,-0.1933 -0.38667,-0.29 -0.67667,-0.29 -0.48333,0 -0.87,0.3867 -0.87,0.9666 l 0,2.6097 -0.87,0 0,-4.2529 0.87,0 0,0.4833 c 0.19333,-0.29 0.67667,-0.4833 1.16,-0.4833 0.38667,0 0.77333,0.097 1.06333,0.3867 l -0.67666,0.5799 z"
       id="path434"
       inkscape:connector-curvature="0"
       style="fill:#cdb171" />
    <path
       class="st12"
       d="m 120.26667,1049.6224 0,-0.3867 c -0.29,0.29 -0.58,0.4833 -1.16,0.4833 -0.58,0 -0.87,-0.097 -1.16,-0.3866 -0.19334,-0.1933 -0.29,-0.5799 -0.29,-0.9666 0,-0.6766 0.48333,-1.2565 1.45,-1.2565 l 1.16,0 0,-0.29 c 0,-0.5799 -0.29,-0.7732 -0.96667,-0.7732 -0.48333,0 -0.67667,0.097 -0.96667,0.3866 l -0.58,-0.5799 c 0.38667,-0.4833 0.87,-0.58 1.54667,-0.58 1.16,0 1.74,0.4833 1.74,1.4499 l 0,2.8997 -0.77333,0 z m 0,-1.8365 -0.96667,0 c -0.48333,0 -0.77333,0.1933 -0.77333,0.5799 0,0.3867 0.29,0.58 0.77333,0.58 0.29,0 0.58,0 0.77333,-0.29 0.0967,-0.097 0.19334,-0.29 0.19334,-0.6766 l 0,-0.1933 z"
       id="path436"
       inkscape:connector-curvature="0"
       style="fill:#cdb171" />
    <path
       class="st12"
       d="m 123.84333,1049.6224 c -0.77333,0 -1.16,-0.58 -1.16,-1.1599 l 0,-2.3198 -0.48333,0 0,-0.6766 0.48333,0 0,-1.2565 0.87,0 0,1.2565 0.87,0 0,0.6766 -0.87,0 0,2.3198 c 0,0.29 0.19334,0.4833 0.48334,0.4833 l 0.38666,0 0,0.7732 -0.58,0 z"
       id="path438"
       inkscape:connector-curvature="0"
       style="fill:#cdb171" />
    <path
       class="st12"
       d="m 125.58333,1044.4996 0,-0.8699 0.87,0 0,0.8699 -0.87,0 z m 0,5.1228 0,-4.2529 0.87,0 0,4.2529 -0.87,0 z"
       id="path440"
       inkscape:connector-curvature="0"
       style="fill:#cdb171" />
    <path
       class="st12"
       d="m 130.80333,1049.2357 c -0.29,0.29 -0.67666,0.4833 -1.25666,0.4833 -0.58,0 -0.96667,-0.1933 -1.25667,-0.4833 -0.38667,-0.3866 -0.48333,-0.9665 -0.48333,-1.6431 0,-0.6766 0.0967,-1.2566 0.48333,-1.6432 0.29,-0.29 0.67667,-0.4833 1.25667,-0.4833 0.58,0 0.96666,0.1933 1.25666,0.4833 0.38667,0.3866 0.48334,0.9666 0.48334,1.6432 0.0967,0.6766 0,1.1599 -0.48334,1.6431 z m -0.58,-2.8997 c -0.19333,-0.1933 -0.38666,-0.2899 -0.67666,-0.2899 -0.29,0 -0.48334,0.097 -0.58,0.2899 -0.29,0.29 -0.29,0.6766 -0.29,1.1599 0,0.4833 0,0.8699 0.29,1.1599 0.19333,0.1933 0.38666,0.29 0.58,0.29 0.29,0 0.48333,-0.097 0.67666,-0.29 0.29,-0.29 0.29,-0.6766 0.29,-1.1599 0,-0.4833 -0.0967,-0.8699 -0.29,-1.1599 z"
       id="path442"
       inkscape:connector-curvature="0"
       style="fill:#cdb171" />
    <path
       class="st12"
       d="m 135.25,1049.6224 0,-2.6098 c 0,-0.6766 -0.38667,-0.9665 -0.87,-0.9665 -0.48333,0 -0.87,0.2899 -0.87,0.9665 l 0,2.6098 -0.87,0 0,-4.2529 0.87,0 0,0.3866 c 0.29,-0.29 0.67667,-0.4833 1.16,-0.4833 0.48333,0 0.77333,0.097 1.06333,0.3866 0.29,0.29 0.38667,0.7733 0.38667,1.1599 l 0,2.7064 -0.87,0 z"
       id="path444"
       inkscape:connector-curvature="0"
       style="fill:#cdb171" />
    <path
       style="fill:#00f6f6;fill-opacity:0.96470588"
       inkscape:connector-curvature="0"
       id="path450"
       d="m 17.896666,1035.9938 c -8.0233333,0 -14.0166667,-5.6061 -14.0166667,-13.8219 l 0,-26.58066 5.9933334,0 0,26.29066 c 0,5.3161 3.1900003,8.6991 8.1200003,8.6991 4.93,0 8.12,-3.2863 8.12,-8.6991 l 0,-26.29066 5.993333,0 0,26.58066 c -0.09667,8.3124 -6.186667,13.8219 -14.21,13.8219 z"
       class="st10" />
    <path
       style="fill:#00f6f6;fill-opacity:0.96470588"
       inkscape:connector-curvature="0"
       id="path452"
       d="m 49.893333,1035.9938 c -5.896667,0 -10.15,-1.4499 -13.92,-5.3162 l 3.963333,-3.9629 c 2.9,2.8997 5.993333,3.8663 10.053333,3.8663 5.123334,0 8.12,-2.2231 8.12,-6.186 0,-1.7399 -0.483333,-3.1897 -1.546666,-4.1563 -0.966667,-0.9666 -2.03,-1.3532 -4.253334,-1.6431 l -4.64,-0.6766 c -3.19,-0.4833 -5.703333,-1.5466 -7.443333,-3.1897 -1.933333,-1.8365 -2.9,-4.3496 -2.9,-7.6359 0,-6.9593 4.93,-11.79213 13.146667,-11.79213 5.22,0 8.796667,1.3532 12.18,4.54287 l -3.77,3.86626 c -2.416667,-2.3198 -5.22,-3.093 -8.506667,-3.093 -4.64,0 -7.153333,2.7064 -7.153333,6.2827 0,1.4498 0.483333,2.803 1.45,3.6729 0.966666,0.87 2.61,1.5465 4.446666,1.8365 l 4.446667,0.6766 c 3.673333,0.58 5.703334,1.4499 7.346667,2.9964 2.126667,1.9331 3.19,4.8328 3.19,8.2158 -0.193333,7.3459 -6.09,11.6955 -14.21,11.6955 z"
       class="st10" />
    <path
       style="fill:#00f6f6;fill-opacity:0.96470588"
       inkscape:connector-curvature="0"
       id="path454"
       d="m 69.71,1035.7038 0,-40.11256 5.993333,0 0,40.11256 -5.993333,0 z"
       class="st10" />
    <path
       class="st10"
       d="m 116.30333,1010.863 c 0,0 -0.0967,0.1933 -0.29,0.3866 -0.19333,0.29 -0.48333,0.6766 -0.87,1.0633 -0.19333,0.1933 -0.38666,0.4832 -0.58,0.6766 -0.19333,0.1933 -0.38666,0.4832 -0.67666,0.7732 -0.19334,0.29 -0.48334,0.4833 -0.77334,0.7733 -0.29,0.2899 -0.48333,0.4833 -0.77333,0.7732 -0.29,0.29 -0.48333,0.4833 -0.77333,0.7733 -0.29,0.2899 -0.48334,0.4833 -0.77334,0.7732 -0.48333,0.4833 -0.96666,0.8699 -1.45,1.2566 -0.38666,0.3866 -0.77333,0.6766 -1.06333,0.8699 -0.29,0.1933 -0.38667,0.2899 -0.38667,0.2899 0,0 0.0967,-0.1933 0.29,-0.3866 0.19334,-0.2899 0.48334,-0.6766 0.87,-1.0632 0.38667,-0.3866 0.77334,-0.9666 1.25667,-1.4499 0.19333,-0.2899 0.48333,-0.4832 0.77333,-0.7732 0.29,-0.29 0.48334,-0.4833 0.77334,-0.7733 0.29,-0.2899 0.48333,-0.4832 0.77333,-0.7732 0.29,-0.29 0.48333,-0.4833 0.77333,-0.7733 0.29,-0.1933 0.48334,-0.4833 0.77334,-0.6766 0.19333,-0.1933 0.48333,-0.3866 0.67666,-0.5799 0.38667,-0.3866 0.77334,-0.6766 1.06334,-0.8699 0.29,-0.097 0.38666,-0.29 0.38666,-0.29 z"
       id="path460"
       inkscape:connector-curvature="0"
       style="fill:#08ffff" />
    <path
       class="st10"
       d="m 107.99,1010.863 c 0,0 0.0967,0.1933 0.29,0.3866 0.19333,0.29 0.48333,0.6766 0.87,1.0633 0.19333,0.1933 0.38667,0.4832 0.58,0.6766 0.19333,0.1933 0.38667,0.4832 0.67667,0.7732 0.19333,0.29 0.48333,0.4833 0.77333,0.7733 0.29,0.2899 0.48333,0.4833 0.77333,0.7732 0.29,0.29 0.48334,0.4833 0.77334,0.7733 0.29,0.2899 0.48333,0.4833 0.77333,0.7732 0.48333,0.4833 0.96667,0.8699 1.45,1.2566 0.38667,0.3866 0.77333,0.6766 1.06333,0.8699 0.29,0.1933 0.38667,0.2899 0.38667,0.2899 0,0 -0.0967,-0.1933 -0.29,-0.3866 -0.19333,-0.2899 -0.48333,-0.6766 -0.87,-1.0632 -0.38667,-0.3866 -0.77333,-0.9666 -1.25667,-1.4499 -0.19333,-0.2899 -0.48333,-0.4832 -0.77333,-0.7732 -0.29,-0.29 -0.48333,-0.4833 -0.77333,-0.7733 -0.29,-0.2899 -0.48334,-0.4832 -0.77334,-0.7732 -0.29,-0.29 -0.48333,-0.4833 -0.77333,-0.7733 -0.29,-0.1933 -0.48333,-0.4833 -0.77333,-0.6766 -0.19334,-0.1933 -0.48334,-0.3866 -0.67667,-0.5799 -0.38667,-0.3866 -0.77333,-0.6766 -1.06333,-0.8699 -0.19334,-0.097 -0.38667,-0.29 -0.38667,-0.29 z"
       id="path463"
       inkscape:connector-curvature="0"
       style="fill:#00f6f6;fill-opacity:0.96470588" />
    <path
       id="XMLID_169_"
       class="st12"
       d="m 99.87,1014.6326 c -0.09667,0 -0.29,0 -0.386667,0 -2.803333,-0.097 -5.413333,-1.2565 -7.346667,-3.383 -1.933333,-2.0298 -2.9,-4.7361 -2.803333,-7.6358 0.193333,-5.89611 5.026667,-10.43897 10.923337,-10.24566 2.80333,0.0967 5.41333,1.25654 7.34666,3.38299 1.93334,2.02979 2.9,4.73617 2.80334,7.63587 -0.19334,5.7028 -4.83334,10.2456 -10.53667,10.2456 z m -0.09667,-20.58786 c -5.413333,0 -9.763333,4.25289 -9.956667,9.66566 -0.09667,2.7064 0.87,5.2195 2.706667,7.1526 1.836667,1.9331 4.253333,3.093 6.96,3.1897 5.51,0.1933 10.15,-4.1563 10.34334,-9.6657 0.0967,-2.7064 -0.87,-5.21946 -2.70667,-7.15259 -1.83667,-1.93314 -4.25333,-3.09302 -6.96,-3.18967 -0.0967,0 -0.193337,0 -0.38667,0 z"
       inkscape:connector-curvature="0"
       style="fill:#cdb171" />
    <path
       id="XMLID_166_"
       class="st12"
       d="m 107.99,1010.7664 -18.366667,-3.8663 10.826667,-13.33865 7.54,17.20495 z m -17.4,-4.2529 16.43333,3.4796 -6.76666,-15.36842 -9.66667,11.88882 z"
       inkscape:connector-curvature="0"
       style="fill:#cdb171" />
    <path
       id="XMLID_162_"
       class="st12"
       d="m 124.23,1014.6326 c -0.19333,0 -0.29,0 -0.48333,0 -5.8,-0.1933 -10.44,-5.2194 -10.15,-11.0188 0.19333,-5.89611 5.12333,-10.43897 11.02,-10.149 5.8,0.19331 10.44,5.21946 10.15,11.0189 -0.19334,5.7027 -4.83334,10.1489 -10.53667,10.1489 z m 0,-20.58786 c -5.41333,0 -9.76333,4.25289 -9.95667,9.56906 -0.19333,5.5094 4.06,10.1489 9.57,10.4389 5.51,0.1933 10.15,-4.0596 10.44,-9.569 0.19334,-5.50947 -4.06,-10.14899 -9.57,-10.43896 -0.19333,0 -0.38666,0 -0.48333,0 z"
       inkscape:connector-curvature="0"
       style="fill:#cdb171" />
    <path
       id="XMLID_159_"
       class="st12"
       d="m 116.20667,1011.0563 7.25,-17.49485 10.63333,14.01525 -17.88333,3.4796 z m 7.44333,-16.33497 -6.47667,15.46507 16.04667,-2.9963 -9.57,-12.46877 z"
       inkscape:connector-curvature="0"
       style="fill:#cdb171" />
    <path
       id="XMLID_155_"
       class="st12"
       d="m 124.23,1036.5737 c -5.12333,0 -9.57,-3.6729 -10.44,-8.7958 -1.06333,-5.7994 2.80333,-11.3088 8.60333,-12.2754 0.58,-0.097 1.25667,-0.1933 1.83667,-0.1933 5.12333,0 9.57,3.673 10.44,8.7958 1.06333,5.7994 -2.80333,11.3088 -8.60333,12.2754 -0.58,0.1933 -1.25667,0.1933 -1.83667,0.1933 z m 0,-20.5879 c -0.58,0 -1.16,0.097 -1.74,0.1933 -5.41333,0.9666 -9.08667,6.1861 -8.12,11.5988 0.87,4.8329 5.02667,8.2159 9.86,8.2159 0.58,0 1.16,-0.097 1.74,-0.1933 5.41333,-0.9666 9.08667,-6.1861 8.12,-11.5989 -0.87,-4.7361 -5.02667,-8.2158 -9.86,-8.2158 z"
       inkscape:connector-curvature="0"
       style="fill:#cdb171" />
    <path
       id="XMLID_152_"
       class="st12"
       d="m 122.78,1036.4771 -6.67,-17.3983 18.36667,4.7362 -11.69667,12.6621 z m -5.70333,-16.5284 5.89666,15.5618 10.44,-11.3089 -16.33666,-4.2529 z"
       inkscape:connector-curvature="0"
       style="fill:#cdb171" />
    <path
       id="XMLID_148_"
       class="st12"
       d="m 99.773333,1036.5737 c -1.933333,0 -3.77,-0.4833 -5.413333,-1.5465 -5.026667,-2.9964 -6.67,-9.569 -3.673334,-14.5952 1.933334,-3.1896 5.413334,-5.1228 9.086667,-5.1228 1.933337,0 3.769997,0.4833 5.413337,1.5465 5.02666,2.9964 6.67,9.569 3.67333,14.5952 -1.93333,3.1897 -5.41333,5.1228 -9.086667,5.1228 z m 0,-20.5879 c -3.48,0 -6.766667,1.8365 -8.603333,4.8329 -2.803334,4.7361 -1.256667,10.9222 3.48,13.7252 1.546666,0.9666 3.286666,1.4499 5.123333,1.4499 3.479997,0 6.766667,-1.8365 8.603337,-4.8329 2.80333,-4.7362 1.25666,-10.9222 -3.48,-13.7252 -1.54667,-0.9666 -3.28667,-1.4499 -5.123337,-1.4499 z"
       inkscape:connector-curvature="0"
       style="fill:#cdb171" />
    <path
       id="XMLID_145_"
       class="st12"
       d="m 100.45,1036.3804 -11.02,-12.8554 18.56,-4.2529 -7.54,17.1083 z m -9.956667,-12.4687 9.763337,11.4055 6.67,-15.1751 -16.433337,3.7696 z"
       inkscape:connector-curvature="0"
       style="fill:#cdb171" />
    <path
       style="fill:#00f6f6;fill-opacity:0.96470588"
       inkscape:connector-curvature="0"
       d="m 112.14667,1028.4545 c -7.34667,0 -13.340004,-5.9927 -13.340004,-13.3386 0,-7.3459 5.993334,-13.3386 13.340004,-13.3386 7.34666,0 13.34,5.9927 13.34,13.3386 0,7.3459 -5.99334,13.3386 -13.34,13.3386 z m 0,-26.0973 c -6.96,0 -12.663337,5.7028 -12.663337,12.6621 0,6.9592 5.703337,12.662 12.663337,12.662 6.96,0 12.66333,-5.7028 12.66333,-12.662 0,-6.9593 -5.60667,-12.6621 -12.66333,-12.6621 z"
       class="st10"
       id="XMLID_138_" />
  </g>
</svg>
